<?xml version="1.0" encoding="UTF-8" standalone="no"?>
<svg
   xmlns:dc="http://purl.org/dc/elements/1.1/"
   xmlns:cc="http://creativecommons.org/ns#"
   xmlns:rdf="http://www.w3.org/1999/02/22-rdf-syntax-ns#"
   xmlns:svg="http://www.w3.org/2000/svg"
   xmlns="http://www.w3.org/2000/svg"
   xmlns:sodipodi="http://sodipodi.sourceforge.net/DTD/sodipodi-0.dtd"
   xmlns:inkscape="http://www.inkscape.org/namespaces/inkscape"
   width="64pt"
   height="64pt"
   viewBox="0 0 22.577778 22.577778"
   version="1.1"
   id="svg831"
   inkscape:version="1.0 (4035a4fb49, 2020-05-01)"
   sodipodi:docname="26 - Science And Tech.svg"
   inkscape:export-filename="E:\Project\Update\026 - Science And Technology\5 - Send\4 - Filledline\26 - Science And Tech.png"
   inkscape:export-xdpi="576"
   inkscape:export-ydpi="576">
  <defs
     id="defs825">
    <pattern
       id="EMFhbasepattern"
       patternUnits="userSpaceOnUse"
       width="6"
       height="6"
       x="0"
       y="0" />
    <pattern
       id="EMFhbasepattern-9"
       patternUnits="userSpaceOnUse"
       width="6"
       height="6"
       x="0"
       y="0" />
    <pattern
       id="EMFhbasepattern-0"
       patternUnits="userSpaceOnUse"
       width="6"
       height="6"
       x="0"
       y="0" />
    <pattern
       id="EMFhbasepattern-7"
       patternUnits="userSpaceOnUse"
       width="6"
       height="6"
       x="0"
       y="0" />
    <pattern
       id="EMFhbasepattern-2"
       patternUnits="userSpaceOnUse"
       width="6"
       height="6"
       x="0"
       y="0" />
    <pattern
       id="EMFhbasepattern-98"
       patternUnits="userSpaceOnUse"
       width="6"
       height="6"
       x="0"
       y="0" />
    <pattern
       id="EMFhbasepattern-6"
       patternUnits="userSpaceOnUse"
       width="6"
       height="6"
       x="0"
       y="0" />
    <pattern
       id="EMFhbasepattern-01"
       patternUnits="userSpaceOnUse"
       width="6"
       height="6"
       x="0"
       y="0" />
    <pattern
       id="EMFhbasepattern-07"
       patternUnits="userSpaceOnUse"
       width="6"
       height="6"
       x="0"
       y="0" />
    <pattern
       id="EMFhbasepattern-8"
       patternUnits="userSpaceOnUse"
       width="6"
       height="6"
       x="0"
       y="0" />
    <pattern
       id="EMFhbasepattern-4"
       patternUnits="userSpaceOnUse"
       width="6"
       height="6"
       x="0"
       y="0" />
    <pattern
       id="EMFhbasepattern-40"
       patternUnits="userSpaceOnUse"
       width="6"
       height="6"
       x="0"
       y="0" />
    <pattern
       id="EMFhbasepattern-08"
       patternUnits="userSpaceOnUse"
       width="6"
       height="6"
       x="0"
       y="0" />
    <pattern
       id="EMFhbasepattern-04"
       patternUnits="userSpaceOnUse"
       width="6"
       height="6"
       x="0"
       y="0" />
    <pattern
       id="EMFhbasepattern-014"
       patternUnits="userSpaceOnUse"
       width="6"
       height="6"
       x="0"
       y="0" />
    <pattern
       id="EMFhbasepattern-27"
       patternUnits="userSpaceOnUse"
       width="6"
       height="6"
       x="0"
       y="0" />
    <pattern
       id="EMFhbasepattern-09"
       patternUnits="userSpaceOnUse"
       width="6"
       height="6"
       x="0"
       y="0" />
    <pattern
       id="EMFhbasepattern-5"
       patternUnits="userSpaceOnUse"
       width="6"
       height="6"
       x="0"
       y="0" />
    <pattern
       id="EMFhbasepattern-018"
       patternUnits="userSpaceOnUse"
       width="6"
       height="6"
       x="0"
       y="0" />
  </defs>
  <sodipodi:namedview
     id="base"
     pagecolor="#ffffff"
     bordercolor="#666666"
     borderopacity="1.0"
     inkscape:pageopacity="0.0"
     inkscape:pageshadow="2"
     inkscape:zoom="3.1416206"
     inkscape:cx="52.60274"
     inkscape:cy="52.748859"
     inkscape:document-units="pt"
     inkscape:current-layer="layer1"
     showgrid="false"
     units="pt"
     inkscape:window-width="1366"
     inkscape:window-height="716"
     inkscape:window-x="-8"
     inkscape:window-y="-8"
     inkscape:window-maximized="1"
     inkscape:pagecheckerboard="true"
     inkscape:showpageshadow="false"
     inkscape:object-paths="true"
     inkscape:snap-intersection-paths="true"
     inkscape:snap-smooth-nodes="true"
     inkscape:snap-midpoints="true"
     showguides="true"
     inkscape:snap-bbox="true"
     inkscape:bbox-nodes="true"
     inkscape:snap-nodes="false"
     inkscape:snap-global="true"
     inkscape:snap-others="false"
     inkscape:document-rotation="0">
    <inkscape:grid
       type="xygrid"
       id="grid1378" />
    <sodipodi:guide
       position="0.97013831,21.607643"
       orientation="78.000048,0"
       id="guide1380"
       inkscape:locked="false" />
    <sodipodi:guide
       position="0.97013831,0.97013129"
       orientation="0,78.000005"
       id="guide1382"
       inkscape:locked="false" />
    <sodipodi:guide
       position="21.607639,0.97013129"
       orientation="-78.000048,0"
       id="guide1384"
       inkscape:locked="false" />
    <sodipodi:guide
       position="21.607639,21.607643"
       orientation="0,-78.000005"
       id="guide1386"
       inkscape:locked="false" />
  </sodipodi:namedview>
  <metadata
     id="metadata828">
    <rdf:RDF>
      <cc:Work
         rdf:about="">
        <dc:format>image/svg+xml</dc:format>
        <dc:type
           rdf:resource="http://purl.org/dc/dcmitype/StillImage" />
        <dc:title></dc:title>
      </cc:Work>
    </rdf:RDF>
  </metadata>
  <g
     inkscape:label="Icon"
     inkscape:groupmode="layer"
     id="layer1"
     transform="translate(0,-274.42223)">
    <g
       transform="matrix(1.258025,0,0,1.258025,39.010886,-192.39121)"
       style="display:inline;stroke-width:0.794897"
       id="g3546">
      <g
         style="display:inline;stroke-width:0.794897"
         id="g919628">
        <path
           sodipodi:nodetypes="cccccccccccccsscc"
           id="path392785"
           d="m -27.134778,384.47062 c 0,0 -0.94297,0.2445 -1.611535,-0.24366 -0.04631,-0.0384 -0.105291,-0.061 -0.169762,-0.0607 -0.145412,5.3e-4 -0.263049,0.11814 -0.263552,0.26355 v 0.88676 c -5.29e-4,0.0654 0.02281,0.12877 0.06615,0.17777 l 0.107487,0.11886 -0.107487,0.11937 c -0.0429,0.0485 -0.06625,0.11096 -0.06615,0.1757 v 0.88883 c 5.3e-4,0.14541 0.11814,0.26303 0.263552,0.26355 h 6.879166 c 0.14618,5.3e-4 0.265119,-0.11789 0.265617,-0.26406 v -0.5917 c 0,-0.61132 -0.06007,-1.25609 -0.408244,-1.77508 -0.34817,-0.51901 -0.990622,-0.85577 -1.973001,-0.85576 -0.925211,10e-6 -1.967951,0.61311 -2.982241,0.89659 z"
           style="color:#000000;fill:#e2f0fa;stroke-width:0.794897;stroke-linecap:round;stroke-linejoin:round;paint-order:markers fill stroke" />
        <path
           sodipodi:nodetypes="ssccccccccccccccs"
           id="path392797"
           d="m -21.892721,384.4298 c -0.34817,0.51899 -0.408244,1.16377 -0.408244,1.77509 v 0.59221 c 5.56e-4,0.14552 0.118545,0.26327 0.264067,0.26355 h 6.880717 c 0.145411,-5.3e-4 0.26304,-0.11814 0.26355,-0.26355 v -0.88884 c 1.14e-4,-0.0647 -0.02325,-0.1272 -0.06615,-0.17569 l -0.107487,-0.11938 0.107487,-0.11885 c 0.04335,-0.049 0.06674,-0.11235 0.06615,-0.17777 4e-6,-0.29949 0,-0.60651 0,-0.9033 0,-0.0514 -0.02175,-0.10053 -0.05271,-0.1416 -0.08701,-0.11659 -0.251837,-0.14106 -0.36897,-0.0548 -0.669512,0.49901 -1.623157,0.25374 -1.623157,0.25374 -1.014291,-0.28348 -2.057031,-0.89659 -2.982247,-0.89658 -0.982383,1e-5 -1.624836,0.33677 -1.973006,0.85577 z"
           style="color:#000000;fill:#e2f0fa;stroke-width:0.794897;stroke-linecap:round;stroke-linejoin:round;paint-order:markers fill stroke" />
        <g
           style="fill:#9ebed1;fill-opacity:1;stroke-width:0.794897"
           id="g792795" />
        <path
           id="path392809"
           d="m -15.15625,386.53125 a 0.26460996,0.26460996 0 0 0 -0.265625,0.26562 v 1.18165 a 0.26460996,0.26460996 0 0 0 0.265625,0.26562 h 1.056641 a 0.26460996,0.26460996 0 0 0 0.265625,-0.26562 v -1.18165 a 0.26460996,0.26460996 0 0 0 -0.265625,-0.26562 z"
           style="color:#000000;fill:#1f8b95;stroke-width:0.794897;stroke-linecap:round;stroke-linejoin:round;paint-order:markers fill stroke" />
        <path
           id="path392815"
           d="m -22.564453,382.42383 a 0.26460996,0.26460996 0 0 0 -0.238281,0.38281 l 0.265625,0.5293 a 0.26460996,0.26460996 0 0 0 0.236328,0.14648 h 0.529297 a 0.26460996,0.26460996 0 0 0 0.236328,-0.14648 l 0.265625,-0.5293 a 0.26460996,0.26460996 0 0 0 -0.238281,-0.38281 z"
           style="color:#000000;fill:#4f697d;stroke-width:0.794897;stroke-linecap:round;stroke-linejoin:round;stroke-miterlimit:10" />
        <path
           id="path392821"
           d="m -23.623047,379.77734 a 0.26460996,0.26460996 0 0 0 -0.265625,0.26368 v 1.58789 c -1e-6,0.4089 0.162038,0.80267 0.451172,1.09179 l 0.15625,0.1543 a 0.26460996,0.26460996 0 0 0 0.1875,0.0781 h 2.115234 a 0.26460996,0.26460996 0 0 0 0.1875,-0.0781 l 0.154297,-0.1543 c 0.289133,-0.28912 0.453125,-0.6829 0.453125,-1.09179 v -1.58789 a 0.26460996,0.26460996 0 0 0 -0.265625,-0.26368 z"
           style="color:#000000;fill:#e2f0fa;stroke-width:0.794897;stroke-linecap:round;stroke-linejoin:round;stroke-miterlimit:10" />
        <path
           id="path311812"
           d="m -22.037109,371.83984 c -2.042619,0 -3.703126,1.66246 -3.703125,3.70508 8.26e-4,0.96851 0.379994,1.8847 1.037109,2.56641 0.266253,0.27621 0.550781,0.81447 0.550781,1.13672 v 1.05859 a 0.26460996,0.26460996 0 0 0 0.07617,0.1875 l 0.265625,0.26367 a 0.26460996,0.26460996 0 0 0 0.1875,0.0781 h 3.173828 a 0.26460996,0.26460996 0 0 0 0.1875,-0.0781 l 0.265625,-0.26367 a 0.26460996,0.26460996 0 0 0 0.07617,-0.1875 v -1.05859 c 0,-0.32225 0.284523,-0.8605 0.550781,-1.13672 0.657118,-0.68171 1.036284,-1.5979 1.03711,-2.56641 2e-6,-2.04262 -1.662459,-3.70508 -3.705078,-3.70508 z"
           style="color:#000000;fill:#fec872;fill-opacity:1;stroke-width:0.794897;stroke-linecap:round;stroke-linejoin:round;stroke-miterlimit:10" />
        <path
           transform="matrix(0.26458334,0,0,0.26458334,0,280.06666)"
           d="m -86.287109,372.85742 a 1.0001006,1.0001006 0 0 0 -0.945313,1.31446 l 0.945313,2.8496 v 1.8379 h 6.001953 v -1.8379 l 0.945312,-2.8496 a 1.0001006,1.0001006 0 0 0 -0.945312,-1.31446 z"
           style="color:#000000;fill:#fd8c35;fill-opacity:1;stroke-width:3.00434;stroke-linecap:round;stroke-linejoin:round;stroke-miterlimit:10"
           id="path392829" />
        <path
           id="path392897"
           d="m -29.974609,386.53125 a 0.26460996,0.26460996 0 0 0 -0.263672,0.26562 v 1.18165 a 0.26460996,0.26460996 0 0 0 0.263672,0.26562 h 1.058593 a 0.26460996,0.26460996 0 0 0 0.265625,-0.26562 v -1.18165 a 0.26460996,0.26460996 0 0 0 -0.265625,-0.26562 z"
           style="color:#000000;fill:#1f8b95;stroke-width:0.794897;stroke-linecap:round;stroke-linejoin:round;paint-order:markers fill stroke" />
        <path
           sodipodi:nodetypes="ccccc"
           transform="matrix(0.26458334,0,0,0.26458334,0,280.06666)"
           d="m -110.28516,402.38672 v 6.47266 c 17.99935,0 35.998701,0 53.998051,0 v -6.47266 c -17.99935,0 -35.998701,0 -53.998051,0 z"
           style="color:#000000;fill:#30b1ad;stroke-width:3.00434;stroke-linecap:round;stroke-linejoin:round;paint-order:markers fill stroke"
           id="path392903" />
        <path
           id="path392939"
           d="m -22.035156,385.94727 c -0.633636,-0.0346 -1.058594,0.40116 -1.058594,0.8496 -1e-6,0.37469 0.157306,0.71272 0.349609,0.97071 0.09615,0.12899 0.201822,0.23832 0.314454,0.32226 0.112631,0.084 0.227832,0.1543 0.392578,0.1543 0.164745,0 0.281899,-0.0704 0.394531,-0.1543 0.112632,-0.0839 0.218301,-0.19327 0.314453,-0.32226 0.192304,-0.25799 0.34961,-0.59602 0.349609,-0.97071 0,-0.44792 -0.424243,-0.88306 -1.05664,-0.8496 z"
           style="color:#000000;fill:#4f697d;stroke-width:0.794897;stroke-linecap:round;stroke-linejoin:round;paint-order:markers fill stroke" />
      </g>
      <path
         sodipodi:nodetypes="cccsscscsscccscccccccccscscccssccccccccccccssccccccccccccccccccccccsccsscccssscssscsscccccsccccsccsssccsccccsssscccsscccccscsssccccscscscccccscccccssccccsscssscccccscccsccccccsccccccccccsccccccsscccccccccccccccccccccsccccccccccccccscccccccccccccccccccccccccccccccccccccccscsccccccscccsccccccccccccccccccccscccscscccccsccsscccscccccccccccccccccccc"
         transform="matrix(0.26458334,0,0,0.26458334,0,280.06666)"
         d="m -76.285156,380.27148 0.708984,-0.70312 c 0.213625,-0.21279 0.319834,-0.5106 0.289063,-0.81055 v -3.89843 c 0,-1.21796 1.073748,-3.2529 2.080078,-4.29688 2.483595,-2.57654 3.9168,-6.03871 3.919922,-9.69922 7e-6,-7.72014 -6.281819,-14.0039 -14.001953,-14.0039 -7.720135,0 -13.996098,6.28376 -13.996094,14.0039 0.0031,3.66051 1.436337,7.12268 3.919922,9.69922 1.00631,1.04394 2.080078,3.07892 2.080078,4.29688 v 3.90234 c -0.02956,0.29863 0.07656,0.59475 0.289062,0.80664 l 0.708985,0.70312 v 3.58594 c -4e-6,1.54545 0.612288,3.03422 1.705078,4.12696 l 0.589843,0.58203 c 0.195024,0.19389 0.450104,0.29101 0.705079,0.29101 l 1.380859,0.002 0.726562,1.44921 c 0.168983,0.33865 0.514067,0.55405 0.892579,0.55469 h 2.001953 c 0.378512,-6.4e-4 0.723599,-0.21612 0.892578,-0.55469 l 0.726562,-1.44726 h 1.417969 c 0.254967,0 0.510062,-0.0952 0.705078,-0.28906 l 0.546875,-0.54688 c 1.080771,-1.08078 1.697496,-2.58913 1.710938,-4.16799 z m 4.998047,-19.41601 c -0.0027,3.13939 -1.230968,6.11032 -3.359375,8.31836 -1.331411,1.38126 -2.642578,3.52717 -2.642578,5.68555 v 3.58789 l -0.41211,0.41211 h -2.583984 v -1.8379 l 0.945312,-2.8496 c 0.213317,-0.64528 -0.265715,-1.31128 -0.945312,-1.31446 h -6.001953 c -0.679609,0.003 -1.158622,0.66918 -0.945313,1.31446 l 0.945313,2.8496 v 1.8379 h -2.583985 l -0.412109,-0.41211 v -3.58789 c 0,-2.15838 -1.311134,-4.30432 -2.642578,-5.68555 -2.126778,-2.20638 -3.354828,-5.17381 -3.359375,-8.31455 0.0042,-6.63979 5.359349,-12.00009 11.996094,-11.99999 6.63674,9e-5 11.997897,5.36039 12.001953,11.99618 z m -28.996091,-11 c -0.26644,5.5e-4 -0.52165,0.10741 -0.70899,0.29687 -0.39173,0.39073 -0.39173,1.02529 0,1.41602 l 0.998049,0.99609 c 0.39073,0.39173 1.025286,0.39173 1.416016,0 0.386532,-0.38983 0.386532,-1.01837 0,-1.4082 l -1.003906,-1.00391 c -0.18543,-0.18755 -0.437439,-0.29425 -0.701169,-0.29687 z m 33.994138,0 c -0.263727,0.003 -0.515741,0.10932 -0.701172,0.29687 l -1.003907,1.00391 c -0.386532,0.38983 -0.386532,1.01837 0,1.4082 0.39073,0.39173 1.025286,0.39173 1.416016,0 l 0.998047,-0.99609 c 0.39173,-0.39073 0.39173,-1.02529 0,-1.41602 -0.187342,-0.18946 -0.442544,-0.29632 -0.708984,-0.29687 z m -19.244141,1.98633 c -0.716587,0.78356 -1.19806,1.59164 -1.564458,2.4082 -0.885979,-0.11045 -1.714661,-0.10277 -2.466797,0.0508 -0.979321,0.20032 -1.88577,0.69223 -2.384766,1.55664 -0.428141,0.74158 -0.47128,1.61656 -0.273437,2.43555 0.254312,0.97056 0.782375,1.83704 1.308594,2.56445 -0.534939,0.70908 -0.938717,1.42967 -1.181641,2.1543 -0.318652,0.95047 -0.353812,1.98108 0.146484,2.84766 0.428141,0.74154 1.170313,1.21693 1.978516,1.45507 1.038009,0.22937 1.981241,0.24145 2.873047,0.14843 0.367522,0.92544 1.021765,1.75696 1.564458,2.41406 0.610341,0.58084 1.387858,0.98047 2.244141,0.98047 0.856282,0 1.639655,-0.39963 2.25,-0.98047 0.610344,-0.58083 1.091924,-1.34355 1.492187,-2.24414 0.02443,-0.055 0.04847,-0.11195 0.07227,-0.16797 0.882803,0.11095 1.70844,0.1056 2.458984,-0.0469 0.982322,-0.19956 1.892331,-0.69026 2.392578,-1.55664 0.500553,-0.86695 0.46553,-1.89868 0.146485,-2.84961 -0.243332,-0.7253 -0.648248,-1.44495 -1.183594,-2.1543 0.539604,-0.71318 0.948822,-1.43623 1.191406,-2.16601 0.314608,-0.9464 0.343769,-1.97135 -0.154297,-2.83399 -0.428137,-0.74154 -1.170313,-1.21498 -1.978515,-1.45312 -1.037064,-0.22916 -1.980356,-0.24153 -2.871094,-0.14842 -0.370768,-0.92389 -1.023369,-1.8315 -1.566407,-2.41406 -0.610345,-0.58084 -1.393718,-0.98242 -2.250002,-0.98242 -0.856284,0 -1.633801,0.40158 -2.244142,0.98242 z m -18.789067,0.70703 c -0.0745,0.002 -0.14853,0.0126 -0.2207,0.0312 -0.25888,0.0693 -0.47912,0.23955 -0.61133,0.47265 -0.27509,0.47893 -0.10981,1.09019 0.36914,1.36524 l 4,2.31055 c 0.47893,0.27509 1.090186,0.10981 1.365238,-0.36914 0.275086,-0.47893 0.109813,-1.09019 -0.36914,-1.36524 l -3.999998,-2.31055 c -0.16165,-0.0939 -0.34637,-0.14056 -0.53321,-0.13476 z m 42.07227,0 c -0.186836,-0.006 -0.371557,0.0409 -0.533203,0.13476 l -4,2.31055 c -0.478953,0.27505 -0.644227,0.88631 -0.369141,1.36524 0.275052,0.47895 0.886303,0.64422 1.365235,0.36914 l 4,-2.31055 c 0.478953,-0.27505 0.644226,-0.88631 0.36914,-1.36524 -0.132213,-0.2331 -0.352453,-0.40338 -0.611328,-0.47265 -0.07218,-0.0186 -0.146203,-0.0291 -0.220703,-0.0312 z m -21.039062,0.3125 c 0.248277,0 0.524333,0.0978 0.871093,0.42773 0.309243,0.29425 0.643251,0.76422 0.941407,1.37891 -1.374565,0.39084 -2.829761,1.01169 -4.279297,1.8457 0.280636,-1.23012 0.857607,-2.26775 1.601562,-3.22461 0.346772,-0.32995 0.616946,-0.42773 0.865235,-0.42773 z m 6.93164,4 c 0.144416,0.2502 0.188799,0.61216 -0.0078,1.20312 -0.122764,0.36936 -0.344416,0.80399 -0.65625,1.26563 -0.440105,-0.42671 -0.923777,-0.84618 -1.447266,-1.25196 -0.08965,-0.65655 -0.213118,-1.28568 -0.363281,-1.88085 0.565319,-0.0697 1.151828,-0.008 1.66991,0.125 0.459174,0.1353 0.680545,0.32408 0.804687,0.53906 z m -11.929687,3.96296 c -0.420362,-0.39902 -0.76651,-0.84656 -1.115234,-1.28316 -0.468744,-0.64426 -0.758679,-1.2476 -0.871094,-1.7129 -0.112403,-0.46529 -0.06556,-0.75177 0.05859,-0.96679 0.144718,-0.25058 0.436621,-0.47252 1.048828,-0.59766 0.51099,-0.0824 0.932161,-0.0759 1.425785,-0.0645 -0.349461,1.38582 -0.543906,2.95665 -0.546875,4.62501 z m 7.925781,-1.65432 c 0.04935,0.54672 0.07617,1.11305 0.07617,1.69336 -10e-7,0.57753 -0.02532,1.13998 -0.07422,1.6836 -0.447053,0.31389 -0.921821,0.61644 -1.423828,0.90624 -0.50438,0.29121 -1.010029,0.55372 -1.509766,0.78516 -0.49504,-0.23165 -0.995377,-0.49604 -1.496093,-0.78516 -0.501045,-0.28927 -0.977047,-0.59203 -1.423829,-0.90624 -0.04889,-0.54362 -0.07422,-1.10607 -0.07422,-1.6836 0,-0.58031 0.02682,-1.14664 0.07617,-1.69336 0.944572,-0.68112 1.945272,-1.19581 2.917972,-1.68359 1.013195,0.48952 1.999411,1.02624 2.931644,1.68359 z m -21.921872,-0.30859 c -0.55305,-0.002 -1.00284,0.445 -1.00391,0.99805 -0.002,0.55534 0.44857,1.00608 1.00391,1.0039 h 0.99609 c 0.55534,0.002 1.00608,-0.44856 1.00391,-1.0039 -0.001,-0.55305 -0.45086,-1.00021 -1.00391,-0.99805 z m 36.998044,0 c -0.553048,-0.002 -1.002831,0.445 -1.003906,0.99805 -0.0022,0.55534 0.448569,1.00607 1.003906,1.0039 h 0.996094 c 0.555337,0.002 1.006076,-0.44856 1.003906,-1.0039 -0.0011,-0.55305 -0.450858,-1.00021 -1.003906,-0.99805 z m -18,1 c -0.552285,-0.002 -1.00175,0.44381 -1.003906,0.99609 -0.0022,0.55534 0.448565,1.00608 1.003906,1.00391 0.552288,-0.002 0.998257,-0.45162 0.996094,-1.00391 -0.0021,-0.54924 -0.446858,-0.99395 -0.996094,-0.99609 z m 5.583984,1.65039 c 0.680266,0.77964 1.128313,1.53919 1.328125,2.13476 0.199824,0.59558 0.160797,0.9596 0.01563,1.21094 -0.14502,0.25134 -0.441609,0.47282 -1.05664,0.59766 -0.380763,0.0772 -0.863,0.10071 -1.416016,0.0605 0.349239,-1.38461 0.542536,-2.95181 0.54492,-4.62107 0.208747,0.20676 0.405153,0.41228 0.583981,0.61721 z m -10.402344,2.12695 c 0.08961,0.65682 0.212958,1.28557 0.363282,1.88086 -0.682525,0.0491 -1.260049,-0.006 -1.669922,-0.125 -0.459175,-0.13531 -0.680545,-0.32213 -0.804688,-0.53711 -0.145058,-0.25134 -0.19186,-0.61577 0.0078,-1.21094 0.123319,-0.36785 0.346387,-0.79869 0.65821,-1.25781 0.439951,0.42672 0.921933,0.84503 1.445318,1.25 z m -12.142574,-0.77929 c -0.189,-0.006 -0.37592,0.0411 -0.53907,0.13671 l -4,2.30274 c -0.47895,0.27505 -0.64422,0.8863 -0.36914,1.36523 0.27505,0.47895 0.88631,0.64423 1.36524,0.36914 l 3.999998,-2.31054 c 0.478953,-0.27505 0.644226,-0.88631 0.36914,-1.36524 -0.13242,-0.22891 -0.350121,-0.39605 -0.605468,-0.46484 -0.0721,-0.0193 -0.14612,-0.0304 -0.2207,-0.0332 z m 33.919918,0 c -0.07458,0.003 -0.148605,0.0139 -0.220703,0.0332 -0.255347,0.0688 -0.473049,0.23593 -0.605469,0.46484 -0.275086,0.47893 -0.109812,1.09019 0.369141,1.36524 l 4,2.31054 c 0.478418,0.27541 1.089509,0.11106 1.365234,-0.36718 0.276416,-0.47937 0.110983,-1.09209 -0.36914,-1.36719 l -4,-2.30274 c -0.163147,-0.0956 -0.350064,-0.14303 -0.539063,-0.13671 z m -14.488281,2.34374 c -0.158081,0.59991 -0.346738,1.14492 -0.556641,1.61719 -0.323603,0.72809 -0.700111,1.27939 -1.046875,1.60938 -0.346771,0.32995 -0.622809,0.42773 -0.871093,0.42773 -0.248278,0 -0.518471,-0.0978 -0.865235,-0.42773 -0.309155,-0.29416 -0.641359,-0.76643 -0.939453,-1.38086 1.374448,-0.39101 2.82997,-1.01166 4.279297,-1.84571 z m -18.472656,1.6543 c -0.265482,5.6e-4 -0.519846,0.10666 -0.707032,0.29492 l -0.998049,0.9961 c -0.39303,0.39095 -0.39303,1.02702 0,1.41797 0.39006,0.38783 1.020103,0.38783 1.410159,0 l 1.003906,-0.99805 c 0.39173,-0.39073 0.39173,-1.02529 0,-1.41602 -0.187663,-0.18874 -0.442825,-0.29488 -0.708984,-0.29492 z m 32.001953,0 c -0.266159,4e-5 -0.521322,0.10618 -0.708985,0.29492 -0.39173,0.39073 -0.39173,1.02529 0,1.41602 l 1.003907,0.99805 c 0.390056,0.38783 1.0201,0.38783 1.410156,0 0.393035,-0.39095 0.393035,-1.02702 0,-1.41797 l -0.998047,-0.9961 c -0.187186,-0.18826 -0.44155,-0.29436 -0.707031,-0.29492 z m -17.613282,8.00196 h 3.22461 l -0.560547,1.68164 c -0.03439,0.10242 -0.05078,0.21064 -0.05078,0.31836 v 2 h -2.001953 v -2 c 1.9e-5,-0.10772 -0.0165,-0.21594 -0.05078,-0.31836 z m -3.388671,6 h 10.001953 v 2.00195 h -10.001953 z m 9.871093,4.00195 c -0.1728,0.65564 -0.511259,1.26713 -0.990234,1.74609 l -0.253906,0.25391 -7.214844,-0.004 -0.291016,-0.29101 c -0.47628,-0.47626 -0.814593,-1.06595 -0.988281,-1.70508 z m -31.005864,4.11914 c -0.54844,0.0747 -0.93188,0.58071 -0.85546,1.12891 0.0776,0.54606 0.58269,0.92618 1.1289,0.8496 5.69009,-0.77714 10.904981,-0.13006 14.761721,0.73829 -2.644386,0.73861 -5.434827,2.13597 -8.169921,2.90039 0,0 -3.58303,0.9212 -6.11133,-0.94532 -0.17717,-0.13884 -0.396,-0.21385 -0.62109,-0.21289 -0.55229,0.002 -0.99826,0.45162 -0.9961,1.00391 v 3.35156 c -0.003,0.24716 0.0865,0.48651 0.25,0.67188 l 0.40625,0.44922 -0.40625,0.45117 c -0.1617,0.18336 -0.25063,0.41959 -0.25,0.66406 v 2.35547 h -3.0039 c -0.55303,10e-4 -1.00015,0.45088 -0.99805,1.0039 v 4.46485 c -0.002,0.55303 0.44502,1.00278 0.99805,1.00391 19.997899,2.2e-4 39.999503,0 59.999978,0 0.555318,0.002 1.006025,-0.44859 1.003906,-1.00391 v -4.46485 c 0.0021,-0.55531 -0.448592,-1.00602 -1.003906,-1.0039 h -2.998047 v -2.35547 c 4.3e-4,-0.24454 -0.08786,-0.48076 -0.25,-0.66406 l -0.40625,-0.45117 0.40625,-0.44922 c 0.163842,-0.1852 0.25223,-0.42462 0.25,-0.67188 v -3.30859 c 0.0093,-0.23011 -0.06103,-0.4564 -0.199219,-0.64063 -0.328869,-0.44067 -0.951824,-0.53316 -1.394531,-0.20703 -2.530439,1.88599 -6.134766,0.95899 -6.134766,0.95899 -2.735095,-0.76442 -5.525536,-2.16178 -8.169922,-2.90039 3.85674,-0.86835 9.071629,-1.51543 14.761719,-0.73829 0.546209,0.0766 1.051295,-0.30354 1.128906,-0.8496 0.07642,-0.54821 -0.307024,-1.05421 -0.855469,-1.12891 -12.317869,-1.68234 -22.535156,3.001 -22.535156,3.001 -1.377303,0.59947 -2.370495,1.43622 -3.058594,2.46194 -0.206772,0.30822 -0.384675,0.62762 -0.541015,0.95703 -0.156424,-0.32967 -0.336039,-0.64858 -0.542969,-0.95703 -0.682896,-1.01796 -1.666912,-1.849 -3.043945,-2.45506 0,0 -7.304475,-3.35106 -16.96386,-3.37503 -1.78876,-0.004 -3.66126,0.10428 -5.58593,0.36715 z m 21.863286,4.85941 c 0.950088,0.4139 1.592417,1.00734 2.06836,1.7168 0.589217,0.87831 0.914817,2.01523 1.074218,3.27734 -0.34597,-0.22878 -0.738244,-0.4599 -1.183593,-0.67773 -2.181498,-1.067 -5.643503,-1.92813 -10.800782,-1.35156 -0.544962,0.0635 -0.937402,0.55407 -0.878906,1.09961 0.05983,0.54795 0.553444,0.94503 1.101563,0.88672 4.842712,-0.54138 7.880714,0.26872 9.699218,1.1582 0.425886,0.2083 0.780735,0.4163 1.076172,0.61133 -0.822167,0.40776 -1.413408,1.07544 -1.695312,1.82617 h -21.187504 v -1.97266 l 0.7461,-0.83398 c 0.34104,-0.38002 0.34104,-0.95592 0,-1.33594 l -0.7461,-0.83398 v -1.25391 c 3.08668,1.3104 6.26758,0.36914 6.26758,0.36914 4.166455,-1.16447 8.229311,-3.31445 10.732424,-3.31447 1.369512,0.004 2.520833,0.20947 3.726562,0.62892 z m 23.003906,2.68551 c 0,0 3.181834,0.94392 6.267579,-0.36328 v 1.25586 l -0.746094,0.83398 c -0.336756,0.3789 -0.336756,0.94923 0,1.32813 l 0.746094,0.83398 v 1.97266 h -21.1875 c -0.281837,-0.7509 -0.872983,-1.41833 -1.695313,-1.82617 0.295437,-0.19503 0.650286,-0.40303 1.076172,-0.61133 1.818501,-0.88948 4.850647,-1.69958 9.693359,-1.1582 0.550836,0.0627 1.047694,-0.33574 1.107422,-0.88672 0.05851,-0.54554 -0.333928,-1.03604 -0.878906,-1.09961 -5.157282,-0.57657 -8.625146,0.28452 -10.806641,1.35156 -0.442154,0.21626 -0.834037,0.44471 -1.177734,0.67187 0.159742,-1.25911 0.486177,-2.39491 1.074219,-3.27148 0.475942,-0.70946 1.118271,-1.3029 2.068359,-1.7168 1.246644,-0.48209 2.662168,-0.62415 3.726563,-0.62892 2.503116,2e-5 6.565965,2.15 10.732421,3.31447 z m -16.734306,6.86521 c 0,0.81982 -0.400648,1.77077 -0.923829,2.47266 -0.261581,0.35112 -0.550695,0.63869 -0.78125,0.81055 -0.126633,0.0944 -0.238554,0.14148 -0.294921,0.16406 -0.05499,-0.0227 -0.163821,-0.0681 -0.289063,-0.16211 -0.230551,-0.17197 -0.519661,-0.46153 -0.78125,-0.8125 -0.523185,-0.70189 -0.923828,-1.65284 -0.923828,-2.47266 0,-0.48915 0.373959,-1.25073 1.994141,-1.25134 1.620183,-6.1e-4 1.999996,0.72958 2,1.25134 z m -30.996166,0.99612 h 2 v 2.47266 h -2 z m 4,0 h 21.09766 c 0.179641,0.92739 0.590744,1.77021 1.080078,2.47266 h -22.177738 z m 28.900394,0 h 21.097657 v 2.47266 h -22.179688 c 0.489375,-0.70248 0.90238,-1.54522 1.082031,-2.47266 z m 23.097657,0 h 2 v 2.47266 h -2 z"
         style="color:#000000;fill:#000000;stroke-width:3.00434;stroke-linecap:round;stroke-linejoin:round;stroke-miterlimit:10"
         id="path5754" />
    </g>
  </g>
</svg>
