<svg width="65" height="65" viewBox="0 0 65 65" fill="none" xmlns="http://www.w3.org/2000/svg">
<circle cx="32.5" cy="32.5" r="31.5" fill="white" stroke="#E0DEF7"/>
<circle cx="32.5" cy="32.5" r="28" fill="#5880B1"/>
<rect x="40.5" y="40.5" width="24" height="24" rx="12" fill="#2E609D"/>
<path d="M52.5007 45.8335C48.8207 45.8335 45.834 48.8202 45.834 52.5002C45.834 56.1802 48.8207 59.1668 52.5007 59.1668C56.1807 59.1668 59.1673 56.1802 59.1673 52.5002C59.1673 48.8202 56.1807 45.8335 52.5007 45.8335ZM50.3207 49.6068C50.8607 49.6068 51.3073 50.0468 51.3073 50.5935C51.3073 51.1335 50.8673 51.5802 50.3207 51.5802C49.7807 51.5802 49.334 51.1402 49.334 50.5935C49.334 50.0468 49.774 49.6068 50.3207 49.6068ZM50.4007 55.0335C50.3007 55.1335 50.174 55.1802 50.0473 55.1802C49.9207 55.1802 49.794 55.1335 49.694 55.0335C49.5007 54.8402 49.5007 54.5202 49.694 54.3268L54.0607 49.9602C54.254 49.7668 54.574 49.7668 54.7673 49.9602C54.9607 50.1535 54.9607 50.4735 54.7673 50.6668L50.4007 55.0335ZM54.6807 55.3935C54.1407 55.3935 53.694 54.9535 53.694 54.4068C53.694 53.8668 54.134 53.4202 54.6807 53.4202C55.2207 53.4202 55.6673 53.8602 55.6673 54.4068C55.6673 54.9535 55.2273 55.3935 54.6807 55.3935Z" fill="white"/>
<g clip-path="url(#clip0_7_2550)">
<g filter="url(#filter0_d_7_2550)">
<path d="M23.166 44.5V23.1667C23.166 22.4594 23.447 21.7811 23.9471 21.281C24.4472 20.781 25.1254 20.5 25.8327 20.5H39.166C39.8733 20.5 40.5515 20.781 41.0516 21.281C41.5517 21.7811 41.8327 22.4594 41.8327 23.1667V44.5L37.8327 41.8333L35.166 44.5L32.4993 41.8333L29.8327 44.5L27.166 41.8333L23.166 44.5Z" fill="white"/>
<path d="M23.166 44.5V23.1667C23.166 22.4594 23.447 21.7811 23.9471 21.281C24.4472 20.781 25.1254 20.5 25.8327 20.5H39.166C39.8733 20.5 40.5515 20.781 41.0516 21.281C41.5517 21.7811 41.8327 22.4594 41.8327 23.1667V44.5L37.8327 41.8333L35.166 44.5L32.4993 41.8333L29.8327 44.5L27.166 41.8333L23.166 44.5Z" stroke="white" stroke-width="2" stroke-linecap="round" stroke-linejoin="round"/>
</g>
<g filter="url(#filter1_d_7_2550)">
<path d="M35.1673 27.1667H31.834C31.3036 27.1667 30.7948 27.3775 30.4198 27.7525C30.0447 28.1276 29.834 28.6363 29.834 29.1667C29.834 29.6972 30.0447 30.2059 30.4198 30.581C30.7948 30.956 31.3036 31.1667 31.834 31.1667H33.1673C33.6978 31.1667 34.2065 31.3775 34.5815 31.7525C34.9566 32.1276 35.1673 32.6363 35.1673 33.1667C35.1673 33.6972 34.9566 34.2059 34.5815 34.581C34.2065 34.956 33.6978 35.1667 33.1673 35.1667H29.834M32.5007 35.1667V37.1667M32.5007 25.1667V27.1667" stroke="#5880B1" stroke-width="2" stroke-linecap="round" stroke-linejoin="round" shape-rendering="crispEdges"/>
</g>
</g>
<defs>
<filter id="filter0_d_7_2550" x="20.166" y="17.5" width="28.666" height="34" filterUnits="userSpaceOnUse" color-interpolation-filters="sRGB">
<feFlood flood-opacity="0" result="BackgroundImageFix"/>
<feColorMatrix in="SourceAlpha" type="matrix" values="0 0 0 0 0 0 0 0 0 0 0 0 0 0 0 0 0 0 127 0" result="hardAlpha"/>
<feOffset dx="2" dy="2"/>
<feGaussianBlur stdDeviation="2"/>
<feComposite in2="hardAlpha" operator="out"/>
<feColorMatrix type="matrix" values="0 0 0 0 0.439216 0 0 0 0 0.396078 0 0 0 0 0.941176 0 0 0 0.1 0"/>
<feBlend mode="normal" in2="BackgroundImageFix" result="effect1_dropShadow_7_2550"/>
<feBlend mode="normal" in="SourceGraphic" in2="effect1_dropShadow_7_2550" result="shape"/>
</filter>
<filter id="filter1_d_7_2550" x="26.834" y="22.1667" width="15.334" height="22" filterUnits="userSpaceOnUse" color-interpolation-filters="sRGB">
<feFlood flood-opacity="0" result="BackgroundImageFix"/>
<feColorMatrix in="SourceAlpha" type="matrix" values="0 0 0 0 0 0 0 0 0 0 0 0 0 0 0 0 0 0 127 0" result="hardAlpha"/>
<feOffset dx="2" dy="2"/>
<feGaussianBlur stdDeviation="2"/>
<feComposite in2="hardAlpha" operator="out"/>
<feColorMatrix type="matrix" values="0 0 0 0 0.439216 0 0 0 0 0.396078 0 0 0 0 0.941176 0 0 0 0.1 0"/>
<feBlend mode="normal" in2="BackgroundImageFix" result="effect1_dropShadow_7_2550"/>
<feBlend mode="normal" in="SourceGraphic" in2="effect1_dropShadow_7_2550" result="shape"/>
</filter>
<clipPath id="clip0_7_2550">
<rect width="32" height="32" fill="white" transform="translate(16.5 16.5)"/>
</clipPath>
</defs>
</svg>
