<svg width="40" height="40" viewBox="0 0 33 32" fill="none" xmlns="http://www.w3.org/2000/svg">
<circle cx="16.6152" cy="16" r="16" fill="#ffffff"/>
<path d="M16.6152 12.207C15.8652 12.207 15.1321 12.4294 14.5085 12.8461C13.8849 13.2627 13.3989 13.855 13.1119 14.5478C12.8249 15.2407 12.7498 16.0032 12.8961 16.7387C13.0424 17.4743 13.4036 18.1499 13.9339 18.6802C14.4642 19.2106 15.1398 19.5717 15.8754 19.718C16.611 19.8643 17.3734 19.7892 18.0663 19.5022C18.7592 19.2152 19.3514 18.7292 19.768 18.1056C20.1847 17.482 20.4071 16.7489 20.4071 15.999C20.4071 15.501 20.309 15.0079 20.1185 14.5478C19.9279 14.0878 19.6486 13.6698 19.2965 13.3176C18.9444 12.9655 18.5264 12.6862 18.0663 12.4957C17.6062 12.3051 17.1131 12.207 16.6152 12.207ZM16.6152 18.4607C16.1283 18.4607 15.6523 18.3163 15.2475 18.0458C14.8427 17.7753 14.5271 17.3908 14.3408 16.941C14.1545 16.4912 14.1058 15.9962 14.2007 15.5187C14.2957 15.0411 14.5302 14.6025 14.8745 14.2582C15.2188 13.9139 15.6574 13.6795 16.1349 13.5845C16.6125 13.4895 17.1074 13.5383 17.5573 13.7246C18.0071 13.9109 18.3916 14.2264 18.6621 14.6313C18.9325 15.0361 19.0769 15.5121 19.0769 15.999C19.077 16.3222 19.0133 16.6424 18.8896 16.9411C18.7659 17.2397 18.5846 17.5111 18.356 17.7397C18.1274 17.9683 17.856 18.1497 17.5573 18.2734C17.2586 18.3971 16.9385 18.4607 16.6152 18.4607Z" fill="#0071BE"/>
<path d="M23.955 12.9553C23.9429 12.3427 23.827 11.7366 23.612 11.1629C23.4263 10.6702 23.1356 10.2239 22.7602 9.85472C22.3916 9.47895 21.9454 9.18824 21.4527 9.00293C20.879 8.78787 20.2728 8.67189 19.6602 8.65994C18.8728 8.6241 18.6211 8.61523 16.6157 8.61523C14.6103 8.61523 14.3584 8.62355 13.5705 8.65994C12.958 8.67205 12.3519 8.78802 11.7781 9.00293C11.2853 9.18841 10.8389 9.47909 10.47 9.85472C10.094 10.2234 9.80326 10.6699 9.61821 11.1629C9.40331 11.7366 9.28733 12.3427 9.27523 12.9553C9.23883 13.7427 9.23047 13.9944 9.23047 15.9998C9.23047 18.0053 9.23883 18.257 9.27521 19.0444C9.28732 19.6569 9.4033 20.263 9.61821 20.8368C9.80331 21.3298 10.094 21.7763 10.47 22.145C10.8391 22.5204 11.2855 22.811 11.7781 22.9967C12.3519 23.2116 12.958 23.3275 13.5705 23.3397C14.3584 23.3755 14.6097 23.3845 16.6151 23.3845C18.6205 23.3845 18.8723 23.3761 19.6596 23.3397C20.2722 23.3276 20.8783 23.2116 21.4521 22.9967C21.9427 22.807 22.3883 22.5169 22.7603 22.145C23.1322 21.773 23.4223 21.3275 23.612 20.8368C23.8272 20.2631 23.9432 19.657 23.955 19.0444C23.9908 18.2564 23.9992 18.0053 23.9992 15.9998C23.9992 13.9944 23.9908 13.7427 23.955 12.9553ZM22.6265 18.9842C22.6208 19.4524 22.5349 19.9163 22.3725 20.3555C22.2496 20.674 22.0614 20.9632 21.8199 21.2045C21.5785 21.4458 21.2892 21.6339 20.9707 21.7567C20.5316 21.9195 20.0677 22.0054 19.5993 22.0107C18.8209 22.0465 18.5871 22.0537 16.6151 22.0537C14.643 22.0537 14.4098 22.0465 13.6317 22.0107C13.1633 22.0054 12.6994 21.9194 12.2603 21.7567C11.9395 21.6382 11.6493 21.4494 11.4109 21.2043C11.1654 20.9664 10.9766 20.6763 10.8585 20.3555C10.6957 19.9164 10.6098 19.4525 10.6045 18.9842C10.5687 18.2058 10.5615 17.972 10.5615 15.9999C10.5615 14.0278 10.5693 13.7947 10.6045 13.0156C10.6104 12.5474 10.6963 12.0836 10.8585 11.6443C10.977 11.3236 11.1658 11.0333 11.4109 10.7949C11.6489 10.5493 11.9392 10.3605 12.2603 10.2425C12.6994 10.0797 13.1633 9.9938 13.6317 9.9885C14.4101 9.95269 14.6439 9.94556 16.6151 9.94556C18.5863 9.94556 18.8203 9.9533 19.5993 9.9885C20.0676 9.9944 20.5314 10.0803 20.9707 10.2425C21.2893 10.3653 21.5787 10.5535 21.8201 10.7949C22.0616 11.0364 22.2497 11.3257 22.3725 11.6443C22.5353 12.0834 22.6212 12.5473 22.6265 13.0156C22.6623 13.7947 22.6695 14.0279 22.6695 15.9999C22.6695 17.9719 22.6623 18.2051 22.6265 18.9842Z" fill="#0071BE"/>
<path d="M20.5571 11.1719C20.3221 11.1719 20.0964 11.2653 19.9303 11.4315C19.7642 11.5976 19.6709 11.823 19.6709 12.058C19.6709 12.2929 19.7643 12.5183 19.9304 12.6844C20.0966 12.8505 20.3219 12.9439 20.5569 12.9439C20.7919 12.9439 21.0172 12.8505 21.1834 12.6844C21.3495 12.5183 21.4429 12.2929 21.4429 12.058C21.4429 11.823 21.3496 11.5976 21.1835 11.4315C21.0174 11.2653 20.792 11.1719 20.5571 11.1719Z" fill="#0071BE"/>
</svg>
