<svg width="40" height="40" viewBox="0 0 33 32" fill="none" xmlns="http://www.w3.org/2000/svg">
<circle cx="16.3076" cy="16" r="16" fill="#ffffff"/>
<circle cx="16.3076" cy="16" r="16" fill="#ffffff"/>
<path d="M11.029 12.2982H11.0076C10.7749 12.3122 10.5419 12.2781 10.323 12.198C10.1041 12.118 9.9041 11.9936 9.73542 11.8328C9.56674 11.6719 9.43303 11.4781 9.34265 11.2632C9.25226 11.0484 9.20714 10.8172 9.2101 10.5842C9.21306 10.3511 9.26403 10.1212 9.35984 9.90871C9.45565 9.69625 9.59424 9.50581 9.76694 9.3493C9.93965 9.19279 10.1428 9.07357 10.3636 8.99908C10.5845 8.92459 10.8183 8.89644 11.0505 8.91637C11.2839 8.89947 11.5182 8.93103 11.7388 9.00908C11.9594 9.08712 12.1615 9.20996 12.3323 9.36986C12.5031 9.52977 12.639 9.72329 12.7314 9.93824C12.8238 10.1532 12.8707 10.385 12.8692 10.6189C12.8677 10.8529 12.8178 11.084 12.7227 11.2978C12.6276 11.5116 12.4892 11.7033 12.3164 11.8611C12.1435 12.0188 11.9399 12.139 11.7184 12.2142C11.4968 12.2895 11.2621 12.318 11.029 12.2982Z" fill="#0071BE"/>
<path d="M9.52246 14.5742H12.5575V23.6792H9.52246V14.5742Z" fill="#0071BE"/>
<path d="M20.5237 14.5742C20.0123 14.5756 19.5078 14.6926 19.0479 14.9164C18.588 15.1402 18.1847 15.4651 17.868 15.8667V14.5742H14.833V23.6792H17.868V19.5061C17.868 19.1036 18.0279 18.7176 18.3125 18.4331C18.5971 18.1485 18.9831 17.9886 19.3856 17.9886C19.788 17.9886 20.174 18.1485 20.4586 18.4331C20.7432 18.7176 20.9031 19.1036 20.9031 19.5061V23.6792H23.9381V17.9886C23.9381 17.5402 23.8498 17.0962 23.6782 16.682C23.5066 16.2677 23.2551 15.8913 22.9381 15.5743C22.621 15.2572 22.2446 15.0057 21.8304 14.8341C21.4161 14.6625 20.9721 14.5742 20.5237 14.5742Z" fill="#0071BE"/>
</svg>
