<?xml version="1.0" ?><svg id="Layer_1" style="enable-background:new 0 0 64 64;" version="1.1" viewBox="0 0 64 64" xml:space="preserve" xmlns="http://www.w3.org/2000/svg" xmlns:xlink="http://www.w3.org/1999/xlink"><g><path d="M16.74002,29.1496v5.69l3.52997,0.67999c0.23004,0.78003,0.54999,1.54999,0.95001,2.28003l-2.02002,2.97998L23.22,44.79962   l2.97998-2.01001c0.73004,0.39001,1.48999,0.70001,2.28003,0.94L29.16,47.25958h5.69l0.66998-3.52997   c0.79004-0.23004,1.54999-0.54999,2.29004-0.94L40.78,44.79962l4.03003-4.02002l-2.02002-2.97998   c0.39996-0.73004,0.71002-1.5,0.95001-2.28003l3.51996-0.67999v-5.69l-3.52997-0.66998c-0.22998-0.79999-0.54999-1.56-0.94-2.28003   l2.02002-2.97998L40.78,19.19958l-2.96997,2.02002c-0.74005-0.40002-1.5-0.72003-2.29004-0.95001l-0.66998-3.52997h-5.69   l-0.67999,3.52997c-0.79004,0.23999-1.56,0.56-2.28003,0.95001L23.22,19.19958l-4.02002,4.02002L21.22,26.19958   c-0.39001,0.72003-0.71002,1.48004-0.95001,2.28003L16.74002,29.1496z M21.78,23.4696l1.69-1.69l2.65997,1.79999l0.55005-0.33002   c0.88995-0.54999,1.87-0.94995,2.89996-1.20996l0.63-0.15002l0.60004-3.14996h2.37994l0.61005,3.15997l0.63,0.14001   c1.00995,0.23999,1.98999,0.64996,2.89996,1.20996l0.54999,0.33002l2.66003-1.79999l1.67999,1.69l-1.79999,2.65002l0.33997,0.54999   c0.54004,0.89996,0.95001,1.88,1.20001,2.90997l0.15002,0.62l3.14996,0.61005v2.37994l-3.14996,0.60004l-0.15002,0.63   c-0.23999,1.01001-0.64001,1.98999-1.20001,2.90997l-0.33997,0.54999L42.22,40.5296l-1.67999,1.69l-2.66003-1.79999   l-0.54999,0.32996c-0.90997,0.56006-1.89001,0.97003-2.89996,1.21002l-0.63,0.15002l-0.61005,3.14996h-2.37994l-0.60004-3.14996   l-0.63-0.15002c-1.02997-0.25-2.01001-0.65997-2.89996-1.21002l-0.55005-0.32996L23.47,42.2196l-1.69-1.69l1.81-2.65002   l-0.33997-0.54999c-0.56006-0.91998-0.96002-1.89001-1.20001-2.90997l-0.15002-0.63l-3.15997-0.60004v-2.37994l3.14996-0.61005   l0.16003-0.62c0.25-1.02997,0.64996-2.01001,1.20001-2.90997L23.59,26.11963L21.78,23.4696z"/><path d="M32.00003,37.95959c3.28998,0,5.96997-2.66998,5.96997-5.96002c0-3.28998-2.67999-5.95996-5.96997-5.95996   c-3.28003,0-5.96002,2.66998-5.96002,5.95996C26.04001,35.28961,28.72,37.95959,32.00003,37.95959z"/><path d="M53.06998,49.62957l-13.13,5.03003c-0.5,0.19-1.00995,0.33002-1.53998,0.41998c0.85999-1.01996,1.37-2.33997,1.37-3.77997   v-1h-8.39996c-3.13993,0-4.47957-2.30047-5.73004-3.25c-1.42999-1.33002-3.29999-2.07001-5.25-2.07001h-2.23999V42.5296H5.23001   v18.96997h12.91998v-2.44995h2.16998c0.45001,0,0.89001,0.12,1.28003,0.34998l6.76001,3.89001   c0.70001,0.39996,1.48999,0.60999,2.28998,0.60999c0.22998,0,0.47003-0.02002,0.71002-0.06   c11.17788-1.75903,17.33869-5.64815,27.40997-9.62v-0.66998C58.76999,50.63107,55.84159,48.57684,53.06998,49.62957z    M13.43997,57.63958c-0.82996,0-1.5-0.67999-1.5-1.5c0-0.82996,0.67004-1.5,1.5-1.5c0.83002,0,1.5,0.67004,1.5,1.5   C14.93997,56.95959,14.26999,57.63958,13.43997,57.63958z M31.04001,61.86963c-0.57001,0.08997-1.16998-0.02002-1.67999-0.31   l-6.76001-3.90002c-0.69-0.40002-1.47998-0.60999-2.28003-0.60999h-2.16998V46.97961h2.23999c1.44,0,2.82001,0.54999,3.88,1.52997   c1.12961,0.83131,2.98538,3.79004,7.10004,3.79004h6.26996c-0.44,1.65997-1.95001,2.88-3.73999,2.88h-3.95001v2h7.19   c1.21002,0,2.39001-0.22003,3.52002-0.65002l13.12-5.03003c1.25621-0.49148,2.56976,0.2631,2.90997,1.43005   C47.84162,56.4085,41.78378,60.17088,31.04001,61.86963z"/><path d="M45.86002,2.49957v2.45001h-2.17004c-0.44995,0-0.89996-0.12-1.28998-0.34998l-6.75-3.89001   c-0.90997-0.52002-1.96997-0.71997-3-0.54999c-11.19175,1.7612-17.35143,5.6565-27.41998,9.63v0.65997   c0,2.97674,2.99912,4.97078,5.70996,3.92004l14.48004-5.55005h0.27997c-0.90997,1.04004-1.46997,2.39001-1.46997,3.88v1h8.40997   c1.44,0,2.82001,0.54004,3.88,1.53003c1.18338,0.87087,3.00924,3.78998,7.10004,3.78998h2.23999v2.45001h12.90997V2.49957H45.86002   z M45.86002,17.01959h-2.23999c-3.13993,0-4.48169-2.30208-5.73004-3.25c-1.42999-1.33997-3.29999-2.07001-5.25-2.07001h-6.27997   c0.45001-1.65997,1.95996-2.88,3.75-2.88h3.94v-2h-9L10.22,12.49957c-1.2404,0.49255-2.55829-0.25834-2.90002-1.42999   c8.84439-3.47731,14.90608-7.23931,25.64001-8.94c0.58002-0.08997,1.17999,0.02002,1.69,0.31L41.41,6.3396   c0.69,0.40002,1.47998,0.60999,2.27997,0.60999h2.17004V17.01959z M50.56998,9.35962c-0.82996,0-1.5-0.67004-1.5-1.5   c0-0.82001,0.67004-1.5,1.5-1.5c0.82001,0,1.5,0.67999,1.5,1.5C52.06998,8.68957,51.38998,9.35962,50.56998,9.35962z"/></g></svg>