<svg width="40" height="40" viewBox="0 0 33 32" fill="none" xmlns="http://www.w3.org/2000/svg">
<circle cx="16.1538" cy="16" r="16" fill="#ffffff"/>
<path d="M21.0346 11.7081C20.9333 11.6558 20.8348 11.5984 20.7393 11.5362C20.4615 11.3526 20.2069 11.1363 19.9808 10.8919C19.4152 10.2447 19.2039 9.58812 19.1261 9.12844H19.1293C19.0643 8.74688 19.0911 8.5 19.0952 8.5H16.5189V18.4619C16.5189 18.5956 16.5189 18.7278 16.5133 18.8584C16.5133 18.8747 16.5118 18.8897 16.5108 18.9072C16.5108 18.9144 16.5108 18.9219 16.5093 18.9294C16.5093 18.9312 16.5093 18.9331 16.5093 18.935C16.4821 19.2924 16.3675 19.6377 16.1756 19.9405C15.9837 20.2432 15.7203 20.4942 15.4086 20.6712C15.0838 20.856 14.7164 20.953 14.3427 20.9525C13.1424 20.9525 12.1696 19.9738 12.1696 18.765C12.1696 17.5562 13.1424 16.5775 14.3427 16.5775C14.5699 16.5773 14.7957 16.613 15.0118 16.6834L15.0149 14.0603C14.3591 13.9756 13.6928 14.0277 13.0581 14.2134C12.4234 14.3991 11.8341 14.7142 11.3274 15.1391C10.8833 15.5249 10.51 15.9852 10.2243 16.4994C10.1155 16.6869 9.70519 17.4403 9.6555 18.6631C9.62425 19.3572 9.83269 20.0763 9.93207 20.3734V20.3797C9.99457 20.5547 10.2368 21.1519 10.6314 21.6553C10.9497 22.0591 11.3257 22.4139 11.7474 22.7081V22.7019L11.7536 22.7081C13.0008 23.5556 14.3836 23.5 14.3836 23.5C14.623 23.4903 15.4249 23.5 16.3355 23.0684C17.3455 22.59 17.9205 21.8772 17.9205 21.8772C18.2878 21.4513 18.5799 20.9659 18.7843 20.4419C19.0174 19.8291 19.0952 19.0941 19.0952 18.8003V13.5153C19.1264 13.5341 19.5427 13.8094 19.5427 13.8094C19.5427 13.8094 20.1424 14.1937 21.078 14.4441C21.7493 14.6222 22.6536 14.6597 22.6536 14.6597V12.1022C22.3368 12.1366 21.6933 12.0366 21.0346 11.7081Z" fill="#0071BE"/>
</svg>
